<svg xmlns="http://www.w3.org/2000/svg" width="128" height="128" viewBox="0 0 128 128">
    <title>Sun</title>
    <g fill="none" fillRule="evenodd">
        <path fill="#FFF" d="M0 0h128v128H0z" />
        <path
            d="M64 83c-2.622 0-5.084-.495-7.385-1.484-2.3-.99-4.317-2.338-6.049-4.045-1.731-1.707-3.092-3.724-4.082-6.05C45.494 69.097 45 66.623 45 64s.495-5.084 1.484-7.385a19.19 19.19 0 014.082-6.049 19.19 19.19 0 016.05-4.082C58.915 45.494 61.377 45 64 45c2.622 0 5.084.495 7.385 1.484 2.3.99 4.317 2.35 6.049 4.082a19.19 19.19 0 014.082 6.05C82.506 58.915 83 61.377 83 64c0 2.622-.495 5.096-1.484 7.422-.99 2.325-2.35 4.342-4.082 6.049-1.732 1.707-3.748 3.055-6.05 4.045C69.085 82.506 66.623 83 64 83zm-2 10.009a2 2 0 114 0v7.982a2 2 0 11-4 0V93.01zm0-66a2 2 0 114 0v7.982a2 2 0 11-4 0V27.01zm21.098 58.917a2 2 0 112.828-2.828l5.645 5.645a2 2 0 11-2.828 2.828l-5.645-5.645zm-46.67-46.669a2 2 0 112.83-2.828l5.644 5.645a2 2 0 11-2.828 2.828l-5.645-5.645zM93.009 66a2 2 0 110-4h7.983a2 2 0 110 4H93.01zm-66 0a2 2 0 110-4h7.983a2 2 0 110 4H27.01zm58.918-21.098a2 2 0 11-2.828-2.828l5.645-5.645a2 2 0 112.828 2.828l-5.645 5.645zm-46.669 46.67a2 2 0 11-2.828-2.83l5.645-5.644a2 2 0 112.828 2.828l-5.645 5.645z"
            fill="#FFCC24"
        />
    </g>
</svg>
