<svg xmlns="http://www.w3.org/2000/svg" width="128" height="128" viewBox="0 0 128 128">
    <title>Rain</title>
    <g fill="none" fillRule="evenodd">
        <path fill="#FFF" d="M0 0h128v128H0z" />
        <path
            d="M42.55 85.974C32.772 85.454 25 77.158 25 67c0-10.493 8.294-19 18.525-19 2.19 0 4.29.39 6.24 1.105C51.517 40.48 58.97 34 67.9 34c9.904 0 17.993 7.971 18.5 18h.025C95.579 52 103 59.611 103 69s-7.42 17-16.575 17H42.55v-.026z"
            fill="#DDE1E6"
        />
        <path
            d="M77 92c0-1.105.888-2 2-2 1.105 0 2 .887 2 2v6c0 1.105-.888 2-2 2-1.105 0-2-.887-2-2v-6zm-10-.006c0-1.101.888-1.994 2-1.994 1.105 0 2 .895 2 1.994v12.012A1.992 1.992 0 0169 106c-1.105 0-2-.895-2-1.994V91.994zM57 92c0-1.105.888-2 2-2 1.105 0 2 .887 2 2v6c0 1.105-.888 2-2 2-1.105 0-2-.887-2-2v-6zm-10-.006c0-1.101.888-1.994 2-1.994 1.105 0 2 .895 2 1.994v12.012A1.992 1.992 0 0149 106c-1.105 0-2-.895-2-1.994V91.994z"
            fill="#1994FF"
        />
    </g>
</svg>
